<svg id="Art" xmlns="http://www.w3.org/2000/svg" viewBox="0 0 81.6697 107.23134"><defs><style>.cls-1{fill:#009639;}.cls-2{fill:#fff;}.cls-3{fill:#999;}</style></defs><title>NGINX-Part-of-F5-vertical-black-type-RGB</title><path class="cls-1" d="M18.76286,45.205A3.01876,3.01876,0,0,0,19.897,46.33044l23.20082,13.395.00073-.00073a3.04435,3.04435,0,0,0,3.08369,0l23.20154-13.395a3.04248,3.04248,0,0,0,1.54112-2.66944v-26.79l-.00072-.00072a3.04353,3.04353,0,0,0-1.54185-2.67017L46.18076.80438V.80365a3.04036,3.04036,0,0,0-3.08152,0V.80438l-23.20082,13.395a3.04218,3.04218,0,0,0-1.54257,2.67017l-.00072.00072v26.79a3.02471,3.02471,0,0,0,.407,1.54474" transform="translate(-7.24538 -0.38433)"/><path class="cls-2" d="M37.21162,40.46325a2.98375,2.98375,0,1,1-5.96749,0l.00072.00072.0029-20.48213a3.11062,3.11062,0,0,1,3.38786-2.899,5.306,5.306,0,0,1,4.06716,1.81849l.90165,1.07907,12.46511,14.9173V20.06513h-.00144a2.98375,2.98375,0,1,1,5.96749,0h-.00072L58.032,40.54581a3.111,3.111,0,0,1-3.38786,2.899,5.30252,5.30252,0,0,1-4.06717-1.81849L37.21018,25.63V40.464Z" transform="translate(-7.24538 -0.38433)"/><path class="cls-3" d="M62.23857,103.34765h-1.2814v-1.75646h3.02671v-.78614H60.1234v3.3194h2.07719c.74033,0,1.16746.34152,1.16746.95856v.6737c0,.693-.47446,1.08216-1.32872,1.08216-.81629,0-1.291-.38916-1.291-1.08216v-.62637h-.83346v.60738a2.15677,2.15677,0,0,0,4.27735,0V105.102a1.74584,1.74584,0,0,0-1.9536-1.75435" transform="translate(-7.24538 -0.38433)"/><polygon class="cls-3" points="51.925 101.207 51.925 100.421 47.837 100.421 47.837 107.108 48.671 107.108 48.671 104.414 51.593 104.414 51.593 103.618 48.671 103.618 48.671 101.207 51.925 101.207"/><path class="cls-3" d="M51.66634,100.95576h.41749v-.76745h-.51245a1.60889,1.60889,0,0,0-1.70641,1.82127v.693H49.3052v.75781H49.865v4.032h.80513v-4.032h1.32812v-.75781H50.6701v-.62669c0-.79759.31319-1.12013.99624-1.12013" transform="translate(-7.24538 -0.38433)"/><path class="cls-3" d="M41.14609,106.72492c-.65472,0-.97725-.30354-.97725-1.0722v-2.19233h1.30943v-.75781H40.16884V101.2985h-.80513v1.40408h-.64508v.75781h.64508V105.833c0,1.14786.53986,1.6594,1.61176,1.6594h.58811v-.76746Z" transform="translate(-7.24538 -0.38433)"/><path class="cls-3" d="M37.81491,102.617a2.02509,2.02509,0,0,0-1.47975.57785l-.161-.49224H35.615v4.7898h.80544v-3.01616a1.13344,1.13344,0,0,1,1.2618-1.15841,1.98331,1.98331,0,0,1,.40784.04763v-.73882a2.716,2.716,0,0,0-.27521-.00965" transform="translate(-7.24538 -0.38433)"/><path class="cls-3" d="M46.58273,102.579a1.82352,1.82352,0,0,0-2.03918,1.98224v1.06287a2.04457,2.04457,0,0,0,4.08777,0v-1.06287A1.82635,1.82635,0,0,0,46.58273,102.579Zm1.24347,2.99774c0,.84461-.37982,1.27149-1.24347,1.27149-.86389,0-1.23407-.42688-1.23407-1.27149v-.9682c0-.8446.37983-1.26208,1.24341-1.26208.864,0,1.23413.41748,1.23413,1.26208Z" transform="translate(-7.24538 -0.38433)"/><path class="cls-3" d="M33.9706,102.70258l-.15132.4829a1.87309,1.87309,0,0,0-1.49964-.60649c-1.1768,0-1.86829.5875-1.86829,2.02021v.99655c0,1.42307.69149,2.01992,1.86829,2.01992a1.87386,1.87386,0,0,0,1.49964-.60619l.15132.4829h.55916v-4.7898Zm-1.50868,4.14563c-.80663,0-1.20543-.3985-1.20543-1.30943v-.89225c0-.91093.3988-1.30009,1.20543-1.30009a1.13078,1.13078,0,0,1,1.26241,1.14817v1.19579a1.13743,1.13743,0,0,1-1.26241,1.15781" transform="translate(-7.24538 -0.38433)"/><path class="cls-3" d="M27.70123,100.80505h-2.618v6.68733H25.917v-2.42866h1.79353c1.30009,0,2.03921-.6728,2.03921-1.764v-.73067c0-1.10084-.73912-1.764-2.04855-1.764m1.22443,2.49467c0,.636-.37981.96821-1.17711.96821H25.917v-2.67674H27.7582c.78765,0,1.16746.34183,1.16746.97786Z" transform="translate(-7.24538 -0.38433)"/><polygon points="74.785 73.57 70.851 73.57 66.518 80.44 62.3 73.57 58.224 73.57 64.295 83.49 58.167 93.751 62.043 93.751 66.347 86.825 70.566 93.751 74.642 93.751 68.514 83.746 74.785 73.57"/><polygon points="53.143 73.57 53.143 87.309 45.219 73.57 41.941 73.57 41.941 93.751 45.219 93.751 45.219 80.098 53.143 93.751 56.449 93.751 56.449 73.57 53.143 73.57"/><rect x="35.73803" y="73.57038" width="3.50613" height="20.18067"/><path d="M40.287,81.1376V79.99753c0-3.90495-2.87882-6.44192-7.92413-6.44192-5.01668,0-7.89551,2.537-7.89551,6.44192v8.09506c0,3.90524,2.90746,6.44191,7.92414,6.44191s7.8955-2.53667,7.8955-6.44191V83.36107H32.24889v3.24929h4.53226V87.893c0,2.10953-1.59617,3.39219-4.41831,3.39219-2.79321,0-4.38937-1.28266-4.38937-3.39219V80.19708c0-2.10921,1.59616-3.39187,4.418-3.39187,2.79351,0,4.38968,1.28266,4.38968,3.39187v.94052Z" transform="translate(-7.24538 -0.38433)"/><polygon points="11.202 73.57 11.202 87.309 3.278 73.57 0 73.57 0 93.751 3.278 93.751 3.278 80.098 11.202 93.751 14.509 93.751 14.509 73.57 11.202 73.57"/><path class="cls-3" d="M86.14712,93.231h.38127v-.8492H86.83a.86052.86052,0,0,1,.42363.07074.53054.53054,0,0,1,.20132.494v.17411l.00854.06491a.131.131,0,0,1,.00583.02721c.00195.01049.00272.0136.00856.01826h.35328l-.01282-.0241a.24764.24764,0,0,1-.01711-.11037c-.005-.061-.005-.1131-.005-.16129v-.1609a.6158.6158,0,0,0-.11816-.33657.5489.5489,0,0,0-.3762-.21143.92866.92866,0,0,0,.31364-.10182.47042.47042,0,0,0,.21064-.42752.53127.53127,0,0,0-.33346-.54838,1.65931,1.65931,0,0,0-.59113-.07734h-.75437Zm1.08433-1.16439a.98636.98636,0,0,1-.36261.04819h-.34045v-.78624h.32491a.959.959,0,0,1,.45821.08434.32714.32714,0,0,1,.14342.3152.33274.33274,0,0,1-.22348.33851m1.10726-1.29809a1.9156,1.9156,0,0,0-1.4003-.57248,1.96968,1.96968,0,0,0,0,3.93935,1.97318,1.97318,0,0,0,1.4003-3.36687m-.20015.19549a1.61328,1.61328,0,0,1,.49436,1.19821,1.69263,1.69263,0,0,1-2.89311,1.204,1.671,1.671,0,0,1-.492-1.204,1.69844,1.69844,0,0,1,1.69062-1.70112,1.61518,1.61518,0,0,1,1.20015.50291" transform="translate(-7.24538 -0.38433)"/></svg>