<!-- https://colorswall.com/palette/3128/ -->

<svg width="1250" height="1250" xmlns="http://www.w3.org/2000/svg">
  <title>LOGO</title>
  <g>
    <title>Layer 1</title>
    <rect x="0" y="0" height="1250" width="1250" fill="#AA0505"/>
  </g>
  <g>
    <title>Layer 2</title>
    <path id="svg_1" stroke="#FBCA03" stroke-width="50" fill="transparent" d="M 625 625 V 375 A 150 150 0 0 0 325 375 V 875 A 150 150 0 0 0 625 875 V 625 Z M 625 875 A 150 150 0 0 0 925 875 V 375 A 150 150 0 0 0 625 375 z M 625 525 A 150 150 0 0 0 325 525"/>
  </g>
  <g>
    <title>Layer 3</title>
    <path id="svg_2" stroke="#67C7EB" stroke-width="50" fill="transparent" d="M 625 375 V 875"/>
  </g>
  <g>
    <title>Layer 4</title>
    <path id="svg_3" stroke="#67C7EB" stroke-width="50" fill="transparent" d="M 625 625 V 725 A 150 150 0 0 0 925 725 V 525 A 150 150 0 0 0 625 525 z"/>
  </g>
</svg>