<?xml version="1.0" encoding="UTF-8" standalone="no"?>
<svg width="475.701mm" height="247.415mm"
 viewBox="0 0 1517 789"
 xmlns="http://www.w3.org/2000/svg" xmlns:xlink="http://www.w3.org/1999/xlink"  version="1.2" baseProfile="tiny">
<title>Qt SVG Document</title>
<desc>Generated with Qt</desc>
<defs>
</defs>
<g fill="none" stroke="black" stroke-width="1" fill-rule="evenodd" stroke-linecap="square" stroke-linejoin="bevel" >

<g fill="#000000" fill-opacity="1" stroke="none" transform="matrix(1,0,0,1,0,0)"
font-family="MS Shell Dlg 2" font-size="9" font-weight="400" font-style="normal" 
>
<rect x="0" y="0" width="1517" height="789"/>
</g>

<g fill="none" stroke="#000000" stroke-opacity="1" stroke-width="1" stroke-linecap="square" stroke-linejoin="bevel" transform="matrix(1,0,0,1,0,0)"
font-family="MS Shell Dlg 2" font-size="9" font-weight="400" font-style="normal" 
>
</g>

<g fill="#000000" fill-opacity="1" stroke="#000000" stroke-opacity="1" stroke-width="1" stroke-linecap="butt" stroke-linejoin="miter" stroke-miterlimit="2" transform="matrix(1,0,0,1,0,0)"
font-family="MS Shell Dlg 2" font-size="9" font-weight="400" font-style="normal" 
>
</g>

<g fill="#000000" fill-opacity="1" stroke="#000000" stroke-opacity="1" stroke-width="1" stroke-linecap="butt" stroke-linejoin="miter" stroke-miterlimit="2" transform="matrix(1,0,0,1,0,0)"
font-family="MS Shell Dlg 2" font-size="9" font-weight="400" font-style="normal" 
>
</g>

<g fill="#000000" fill-opacity="1" stroke="#000000" stroke-opacity="1" stroke-width="1" stroke-linecap="square" stroke-linejoin="bevel" transform="matrix(1,0,0,1,0,0)"
font-family="MS Shell Dlg 2" font-size="9" font-weight="400" font-style="normal" 
>
</g>

<g fill="none" stroke="#000000" stroke-opacity="1" stroke-width="1" stroke-linecap="square" stroke-linejoin="bevel" transform="matrix(1,0,0,1,248.654,417.951)"
font-family="MS Shell Dlg 2" font-size="9" font-weight="400" font-style="normal" 
>
<path vector-effect="non-scaling-stroke" fill-rule="evenodd" d="M82.0383,0 C82.0383,-45.3085 45.3085,-82.0383 0,-82.0383 C-45.3085,-82.0383 -82.0383,-45.3085 -82.0383,0 C-82.0383,45.3085 -45.3085,82.0383 0,82.0383 C45.3085,82.0383 82.0383,45.3085 82.0383,0 "/>
</g>

<g fill="#000000" fill-opacity="1" stroke="#000000" stroke-opacity="1" stroke-width="1" stroke-linecap="square" stroke-linejoin="bevel" transform="matrix(1,0,0,1,0,0)"
font-family="MS Shell Dlg 2" font-size="9" font-weight="400" font-style="normal" 
>
<polyline fill="none" vector-effect="non-scaling-stroke" points="873.843,372.688 873.843,463.213 1151.08,463.213 1151.08,372.688 873.843,372.688 " />
<polyline fill="none" vector-effect="non-scaling-stroke" points="1220.27,372.688 1156.73,372.688 1156.73,463.213 1220.27,463.213 1244.06,417.951 1220.27,372.688 " />
<polyline fill="none" vector-effect="non-scaling-stroke" points="559.977,457.546 559.732,457.936 " />
<polyline fill="none" vector-effect="non-scaling-stroke" points="658.803,434.988 631.311,390.975 560.632,277.818 517.444,208.676 474.256,277.818 418.533,367.03 320.053,367.03 " />
<polyline fill="none" vector-effect="non-scaling-stroke" points="320.053,367.03 318.953,365.522 317.821,364.038 316.658,362.578 315.464,361.144 314.24,359.735 312.987,358.352 311.704,356.996 310.392,355.668 309.053,354.369 307.686,353.098 306.292,351.856 304.873,350.644 303.428,349.463 301.958,348.313 300.464,347.195 298.946,346.108 297.406,345.054 295.843,344.033 294.259,343.045 292.655,342.092 291.031,341.173 289.387,340.288 287.725,339.439 286.045,338.625 284.349,337.847 282.636,337.106 280.908,336.401 279.165,335.733 277.408,335.102 275.639,334.509 273.857,333.954 272.063,333.437 270.26,332.957 268.446,332.517 266.623,332.115 264.792,331.752 262.954,331.428 261.11,331.143 259.259,330.898 257.404,330.692 255.545,330.526 253.683,330.399 251.819,330.312 249.953,330.264 248.087,330.256 246.221,330.288 244.355,330.36 242.492,330.471 240.632,330.622 238.775,330.813 236.923,331.043 235.076,331.312 233.236,331.621 231.402,331.968 229.576,332.355 227.759,332.78 225.951,333.244 224.153,333.747 222.367,334.287 220.592,334.866 218.83,335.482 217.082,336.135 215.348,336.825 213.629,337.553 211.926,338.316 210.24,339.116 208.57,339.951 206.92,340.822 205.288,341.728 203.675,342.668 202.083,343.642 200.512,344.65 198.963,345.691 197.437,346.765 195.934,347.871 194.454,349.009 192.999,350.178 191.569,351.378 190.166,352.608 188.788,353.867 187.438,355.156 186.115,356.473 184.821,357.818 183.556,359.19 182.32,360.589 181.115,362.013 179.939,363.463 178.795,364.938 177.683,366.437 176.603,367.959 175.555,369.504 174.541,371.07 173.56,372.658 172.613,374.267 171.7,375.895 170.823,377.542 169.98,379.207 169.174,380.891 168.403,382.59 167.669,384.306 166.971,386.037 166.31,387.783 165.687,389.542 165.101,391.314 164.553,393.099 164.043,394.894 163.572,396.7 163.139,398.515 162.745,400.34 162.389,402.172 162.073,404.011 161.796,405.857 161.558,407.708 161.36,409.564 161.201,411.424 161.082,413.287 161.003,415.151 160.963,417.017 160.963,418.884 161.003,420.75 161.082,422.615 161.201,424.477 161.36,426.337 161.558,428.193 161.796,430.044 162.073,431.89 162.389,433.729 162.745,435.561 163.139,437.386 163.572,439.201 164.043,441.007 164.553,442.803 165.101,444.587 165.687,446.359 166.31,448.118 166.971,449.864 167.669,451.595 168.403,453.311 169.174,455.011 169.98,456.694 170.823,458.359 171.7,460.006 172.613,461.635 173.56,463.243 174.541,464.831 175.555,466.398 176.603,467.942 177.683,469.464 178.795,470.963 179.939,472.438 181.115,473.888 182.32,475.313 183.556,476.711 184.821,478.083 186.115,479.428 187.438,480.745 188.788,482.034 190.166,483.293 191.569,484.523 192.999,485.723 194.454,486.892 195.934,488.03 197.437,489.136 198.963,490.21 200.512,491.251 202.083,492.259 203.675,493.233 205.288,494.174 206.92,495.079 208.57,495.95 210.24,496.785 211.926,497.585 213.629,498.349 215.348,499.076 217.082,499.766 218.83,500.42 220.592,501.036 222.367,501.614 224.153,502.155 225.951,502.657 227.759,503.121 229.576,503.546 231.402,503.933 233.236,504.281 235.076,504.589 236.923,504.859 238.775,505.089 240.632,505.279 242.492,505.43 244.355,505.541 246.221,505.613 248.087,505.645 249.953,505.637 251.819,505.59 253.683,505.502 255.545,505.376 257.404,505.209 259.259,505.003 261.11,504.758 262.954,504.473 264.792,504.149 266.623,503.786 268.446,503.384 270.26,502.944 272.063,502.465 273.857,501.947 275.639,501.392 277.408,500.799 279.165,500.168 280.908,499.5 282.636,498.795 284.349,498.054 286.045,497.276 287.725,496.462 289.387,495.613 291.031,494.729 292.655,493.809 294.259,492.856 295.843,491.868 297.406,490.847 298.946,489.793 300.464,488.707 301.958,487.588 303.428,486.438 304.873,485.257 306.292,484.045 307.686,482.803 309.053,481.532 310.392,480.233 311.704,478.905 312.987,477.549 314.24,476.167 315.464,474.758 316.658,473.323 317.821,471.863 318.953,470.379 320.053,468.871 " />
<polyline fill="none" vector-effect="non-scaling-stroke" points="320.053,468.871 474.996,468.871 489.952,444.926 517.444,400.913 544.936,444.926 615.615,558.083 658.748,627.139 701.96,558.131 757.853,468.871 1217.29,468.871 1215.03,473.169 1212.37,478.243 1218.01,477.274 1279.5,466.728 1323.05,511.401 1327.05,515.505 1327.87,509.833 1336.84,448.097 1392.79,420.487 1397.93,417.951 1392.79,415.414 1336.84,387.805 1327.87,326.068 1327.05,320.396 1323.05,324.501 1279.5,369.173 1218.01,358.628 1212.37,357.659 1215.03,362.732 1217.29,367.03 701.25,367.03 686.294,390.975 658.803,434.988 " />
<polyline fill="none" vector-effect="non-scaling-stroke" points="559.732,457.936 517.444,390.233 471.859,463.213 323.767,463.213 " />
<polyline fill="none" vector-effect="non-scaling-stroke" points="323.767,463.213 324.713,461.606 325.624,459.978 326.5,458.332 327.341,456.667 328.147,454.985 328.916,453.286 329.65,451.571 330.346,449.841 331.006,448.097 331.629,446.339 332.214,444.568 332.761,442.785 333.27,440.991 333.741,439.186 334.173,437.372 334.567,435.549 334.921,433.718 335.237,431.88 335.514,430.035 335.751,428.185 335.949,426.331 336.108,424.472 336.227,422.611 336.306,420.748 336.346,418.883 336.346,417.018 336.306,415.153 336.227,413.29 336.108,411.429 335.949,409.57 335.751,407.716 335.514,405.866 335.237,404.022 334.921,402.184 334.567,400.353 334.173,398.529 333.741,396.715 333.27,394.911 332.761,393.116 332.214,391.333 331.629,389.562 331.006,387.804 330.346,386.06 329.65,384.33 328.916,382.615 328.147,380.916 327.341,379.234 326.5,377.569 325.624,375.923 324.713,374.296 323.767,372.688 " />
<polyline fill="none" vector-effect="non-scaling-stroke" points="323.767,372.688 421.67,372.688 517.444,219.355 613.166,372.604 559.977,457.546 " />
<polyline fill="none" vector-effect="non-scaling-stroke" points="563.066,463.273 658.754,616.469 754.721,463.213 868.185,463.213 868.185,372.688 704.387,372.688 658.803,445.668 616.499,377.941 563.066,463.273 " />
<polyline fill="none" vector-effect="non-scaling-stroke" points="1222.71,365.173 1250.45,417.951 1222.71,470.728 1281.48,460.649 1323.1,503.347 1331.67,444.339 1385.14,417.951 1331.67,391.562 1323.1,332.554 1281.48,375.253 1222.71,365.173 " />
<polyline fill="none" vector-effect="non-scaling-stroke" points="1342.01,384.047 1331,308.238 1277.53,363.094 1202.02,350.144 1207.93,361.372 698.113,361.372 658.803,424.308 517.444,197.996 415.396,361.372 322.91,361.372 " />
<polyline fill="none" vector-effect="non-scaling-stroke" points="322.91,361.372 321.725,359.85 320.508,358.352 319.261,356.88 317.984,355.434 316.677,354.014 315.341,352.622 313.977,351.258 312.585,349.922 311.165,348.616 309.719,347.338 308.247,346.092 306.749,344.875 305.226,343.69 303.679,342.537 302.109,341.416 300.516,340.328 298.901,339.272 297.264,338.251 295.607,337.263 293.929,336.31 292.232,335.392 290.517,334.509 288.783,333.662 287.033,332.85 285.266,332.075 283.483,331.337 281.686,330.636 279.874,329.972 278.049,329.345 276.212,328.757 274.363,328.206 272.502,327.694 270.632,327.221 268.752,326.786 266.864,326.39 264.968,326.033 263.065,325.716 261.155,325.437 259.241,325.199 257.322,325 255.399,324.841 253.473,324.721 251.545,324.641 249.616,324.602 247.687,324.602 245.758,324.642 243.83,324.721 241.905,324.841 239.982,325 238.063,325.199 236.148,325.438 234.239,325.716 232.336,326.034 230.44,326.391 228.551,326.787 226.672,327.222 224.801,327.695 222.941,328.208 221.092,328.758 219.254,329.347 217.43,329.973 215.618,330.638 213.821,331.339 212.038,332.077 210.271,332.852 208.521,333.664 206.787,334.511 205.072,335.394 203.375,336.313 201.698,337.266 200.04,338.254 198.404,339.275 196.788,340.331 195.195,341.419 193.625,342.54 192.078,343.694 190.556,344.879 189.058,346.095 187.586,347.342 186.14,348.619 184.72,349.926 183.328,351.262 181.964,352.626 180.628,354.018 179.321,355.438 178.044,356.884 176.797,358.356 175.581,359.854 174.396,361.377 173.242,362.923 172.121,364.494 171.033,366.087 169.978,367.702 168.956,369.339 167.968,370.996 167.015,372.674 166.097,374.371 165.214,376.086 164.366,377.819 163.555,379.57 162.78,381.337 162.042,383.119 161.34,384.917 160.676,386.728 160.05,388.553 159.461,390.391 158.911,392.24 158.399,394.1 157.925,395.97 157.49,397.85 157.094,399.738 156.737,401.635 156.42,403.538 156.142,405.447 155.903,407.362 155.704,409.281 155.545,411.203 155.425,413.129 155.345,415.057 155.305,416.986 155.305,418.915 155.345,420.844 155.425,422.772 155.545,424.698 155.704,426.621 155.903,428.54 156.142,430.454 156.42,432.364 156.737,434.267 157.094,436.163 157.49,438.051 157.925,439.931 158.399,441.801 158.911,443.661 159.461,445.511 160.05,447.348 160.676,449.173 161.34,450.984 162.042,452.782 162.78,454.564 163.555,456.331 164.366,458.082 165.214,459.815 166.097,461.531 167.015,463.227 167.968,464.905 168.956,466.562 169.978,468.199 171.033,469.814 172.121,471.408 173.242,472.978 174.396,474.525 175.581,476.047 176.797,477.545 178.044,479.017 179.321,480.463 180.628,481.883 181.964,483.275 183.328,484.64 184.72,485.975 186.14,487.282 187.586,488.559 189.058,489.806 190.556,491.023 192.078,492.208 193.625,493.361 195.195,494.482 196.788,495.571 198.404,496.626 200.04,497.648 201.698,498.635 203.375,499.589 205.072,500.507 206.787,501.39 208.521,502.237 210.271,503.049 212.038,503.824 213.821,504.562 215.618,505.264 217.43,505.928 219.254,506.554 221.092,507.143 222.941,507.693 224.801,508.206 226.672,508.679 228.551,509.114 230.44,509.51 232.336,509.867 234.239,510.185 236.148,510.463 238.063,510.702 239.982,510.901 241.905,511.06 243.83,511.18 245.758,511.26 247.687,511.3 249.616,511.3 251.545,511.26 253.473,511.18 255.399,511.061 257.322,510.901 259.241,510.702 261.155,510.464 263.065,510.186 264.968,509.868 266.864,509.511 268.752,509.115 270.632,508.681 272.502,508.207 274.363,507.695 276.212,507.144 278.049,506.556 279.874,505.929 281.686,505.265 283.483,504.564 285.266,503.826 287.033,503.051 288.783,502.24 290.517,501.392 292.232,500.509 293.929,499.591 295.607,498.638 297.264,497.65 298.901,496.629 300.516,495.574 302.109,494.485 303.679,493.364 305.226,492.211 306.749,491.026 308.247,489.81 309.719,488.563 311.165,487.286 312.585,485.979 313.977,484.643 315.341,483.279 316.677,481.887 317.984,480.467 319.261,479.021 320.508,477.549 321.725,476.051 322.91,474.529 " />
<polyline fill="none" vector-effect="non-scaling-stroke" points="322.91,474.529 478.133,474.529 517.444,411.593 658.742,637.809 760.914,474.644 1207.79,474.795 1202.02,485.757 1277.53,472.807 1331,527.664 1342.01,451.854 1410.71,417.951 1342.01,384.047 " />
</g>

<g fill="none" stroke="#000000" stroke-opacity="1" stroke-width="1" stroke-linecap="square" stroke-linejoin="bevel" transform="matrix(1,0,0,1,0,0)"
font-family="MS Shell Dlg 2" font-size="9" font-weight="400" font-style="normal" 
>
</g>
</g>
</svg>
