<svg id="Art" xmlns="http://www.w3.org/2000/svg" viewBox="0 0 81.6697 94.15015"><defs><style>.cls-1{fill:#fff;}</style></defs><title>NGINX-vertical-all-white</title><path class="cls-1" d="M70.92418,16.86952a3.04371,3.04371,0,0,0-1.54187-2.67017L46.18077.80439V.80366a3.04046,3.04046,0,0,0-3.08154,0V.80439l-23.20081,13.395a3.04218,3.04218,0,0,0-1.54254,2.67017l-.00073.00073v26.79a3.02486,3.02486,0,0,0,.407,1.54474h.00073a3.01949,3.01949,0,0,0,1.1341,1.12543l23.20086,13.395.00068-.00074a3.04407,3.04407,0,0,0,3.08374,0l23.20153-13.395a3.04241,3.04241,0,0,0,1.54108-2.66943v-26.79ZM58.03484,20.06514,58.032,40.54579a3.11108,3.11108,0,0,1-3.38788,2.89905,5.30236,5.30236,0,0,1-4.06714-1.81855L37.21019,25.63v14.834l.00147-.00073a2.98377,2.98377,0,0,1-5.96753,0l.00073.00073.00287-20.48212a3.11063,3.11063,0,0,1,3.38788-2.899,5.306,5.306,0,0,1,4.0672,1.81848l.90161,1.0791L52.06957,34.89766V20.06514H52.0681a2.98374,2.98374,0,1,1,5.96747,0Z" transform="translate(-7.24538 -0.38435)"/><polygon class="cls-1" points="74.785 73.57 70.851 73.57 66.518 80.44 62.3 73.57 58.224 73.57 64.295 83.49 58.167 93.751 62.043 93.751 66.347 86.825 70.566 93.751 74.642 93.751 68.514 83.746 74.785 73.57"/><polygon class="cls-1" points="53.143 73.57 53.143 87.309 45.219 73.57 41.941 73.57 41.941 93.751 45.219 93.751 45.219 80.098 53.143 93.751 56.449 93.751 56.449 73.57 53.143 73.57"/><rect class="cls-1" x="35.73803" y="73.57037" width="3.50613" height="20.18067"/><path class="cls-1" d="M40.287,81.1376V79.99753c0-3.90495-2.87882-6.44192-7.92413-6.44192-5.01668,0-7.89551,2.537-7.89551,6.44192v8.09506c0,3.90524,2.90746,6.44191,7.92414,6.44191s7.8955-2.53667,7.8955-6.44191V83.36107H32.24889v3.24929h4.53226V87.893c0,2.10953-1.59617,3.39219-4.41831,3.39219-2.79321,0-4.38937-1.28266-4.38937-3.39219V80.19708c0-2.10921,1.59616-3.39187,4.418-3.39187,2.79351,0,4.38968,1.28266,4.38968,3.39187v.94052Z" transform="translate(-7.24538 -0.38435)"/><polygon class="cls-1" points="11.202 73.57 11.202 87.309 3.278 73.57 0 73.57 0 93.751 3.278 93.751 3.278 80.098 11.202 93.751 14.509 93.751 14.509 73.57 11.202 73.57"/><path class="cls-1" d="M86.14712,93.231h.38127v-.8492H86.83a.86052.86052,0,0,1,.42363.07074.53054.53054,0,0,1,.20132.494v.17411l.00854.06491a.131.131,0,0,1,.00583.02721c.00195.01049.00272.0136.00856.01826h.35328l-.01282-.0241a.24764.24764,0,0,1-.01711-.11037c-.005-.061-.005-.1131-.005-.16129v-.1609a.6158.6158,0,0,0-.11816-.33657.5489.5489,0,0,0-.3762-.21143.92866.92866,0,0,0,.31364-.10182.47042.47042,0,0,0,.21064-.42752.53127.53127,0,0,0-.33346-.54838,1.65931,1.65931,0,0,0-.59113-.07734h-.75437Zm1.08433-1.16439a.98636.98636,0,0,1-.36261.04819h-.34045v-.78624h.32491a.959.959,0,0,1,.45821.08434.32714.32714,0,0,1,.14342.3152.33274.33274,0,0,1-.22348.33851m1.10726-1.29809a1.9156,1.9156,0,0,0-1.4003-.57248,1.96968,1.96968,0,0,0,0,3.93935,1.97318,1.97318,0,0,0,1.4003-3.36687m-.20015.19549a1.61328,1.61328,0,0,1,.49436,1.19821,1.69263,1.69263,0,0,1-2.89311,1.204,1.671,1.671,0,0,1-.492-1.204,1.69844,1.69844,0,0,1,1.69062-1.70112,1.61518,1.61518,0,0,1,1.20015.50291" transform="translate(-7.24538 -0.38435)"/></svg>