<svg id="Art" xmlns="http://www.w3.org/2000/svg" viewBox="0 0 81.6697 94.15017"><defs><style>.cls-1{fill:#231f20;}.cls-2{fill:#fff;}</style></defs><title>NGINX-vertical-all-black</title><path class="cls-1" d="M18.76286,45.205A3.01876,3.01876,0,0,0,19.897,46.33044l23.20082,13.395.00073-.00073a3.04435,3.04435,0,0,0,3.08369,0l23.20154-13.395a3.04248,3.04248,0,0,0,1.54112-2.66944v-26.79l-.00072-.00072a3.04353,3.04353,0,0,0-1.54185-2.67017L46.18076.80438V.80365a3.04036,3.04036,0,0,0-3.08152,0V.80438l-23.20082,13.395a3.04218,3.04218,0,0,0-1.54257,2.67017l-.00072.00072v26.79a3.02471,3.02471,0,0,0,.407,1.54474" transform="translate(-7.24538 -0.38433)"/><path class="cls-2" d="M37.21162,40.46325a2.98375,2.98375,0,1,1-5.96749,0l.00072.00072.0029-20.48213a3.11062,3.11062,0,0,1,3.38786-2.899,5.306,5.306,0,0,1,4.06716,1.81849l.90165,1.07907,12.46511,14.9173V20.06513h-.00144a2.98375,2.98375,0,1,1,5.96749,0h-.00072L58.032,40.54581a3.111,3.111,0,0,1-3.38786,2.899,5.30252,5.30252,0,0,1-4.06717-1.81849L37.21018,25.63V40.464Z" transform="translate(-7.24538 -0.38433)"/><polygon class="cls-1" points="74.785 73.57 70.851 73.57 66.518 80.44 62.3 73.57 58.224 73.57 64.295 83.49 58.167 93.751 62.043 93.751 66.347 86.825 70.566 93.751 74.642 93.751 68.514 83.746 74.785 73.57"/><polygon class="cls-1" points="53.143 73.57 53.143 87.309 45.219 73.57 41.941 73.57 41.941 93.751 45.219 93.751 45.219 80.098 53.143 93.751 56.449 93.751 56.449 73.57 53.143 73.57"/><rect class="cls-1" x="35.73803" y="73.57038" width="3.50613" height="20.18067"/><path class="cls-1" d="M40.287,81.1376V79.99753c0-3.90495-2.87882-6.44192-7.92413-6.44192-5.01668,0-7.89551,2.537-7.89551,6.44192v8.09506c0,3.90524,2.90746,6.44191,7.92414,6.44191s7.8955-2.53667,7.8955-6.44191V83.36107H32.24889v3.24929h4.53226V87.893c0,2.10953-1.59617,3.39219-4.41831,3.39219-2.79321,0-4.38937-1.28266-4.38937-3.39219V80.19708c0-2.10921,1.59616-3.39187,4.418-3.39187,2.79351,0,4.38968,1.28266,4.38968,3.39187v.94052Z" transform="translate(-7.24538 -0.38433)"/><polygon class="cls-1" points="11.202 73.57 11.202 87.309 3.278 73.57 0 73.57 0 93.751 3.278 93.751 3.278 80.098 11.202 93.751 14.509 93.751 14.509 73.57 11.202 73.57"/><path class="cls-1" d="M86.14712,93.231h.38127v-.8492H86.83a.86052.86052,0,0,1,.42363.07074.53054.53054,0,0,1,.20132.494v.17411l.00854.06491a.131.131,0,0,1,.00583.02721c.00195.01049.00272.0136.00856.01826h.35328l-.01282-.0241a.24764.24764,0,0,1-.01711-.11037c-.005-.061-.005-.1131-.005-.16129v-.1609a.6158.6158,0,0,0-.11816-.33657.5489.5489,0,0,0-.3762-.21143.92866.92866,0,0,0,.31364-.10182.47042.47042,0,0,0,.21064-.42752.53127.53127,0,0,0-.33346-.54838,1.65931,1.65931,0,0,0-.59113-.07734h-.75437Zm1.08433-1.16439a.98636.98636,0,0,1-.36261.04819h-.34045v-.78624h.32491a.959.959,0,0,1,.45821.08434.32714.32714,0,0,1,.14342.3152.33274.33274,0,0,1-.22348.33851m1.10726-1.29809a1.9156,1.9156,0,0,0-1.4003-.57248,1.96968,1.96968,0,0,0,0,3.93935,1.97318,1.97318,0,0,0,1.4003-3.36687m-.20015.19549a1.61328,1.61328,0,0,1,.49436,1.19821,1.69263,1.69263,0,0,1-2.89311,1.204,1.671,1.671,0,0,1-.492-1.204,1.69844,1.69844,0,0,1,1.69062-1.70112,1.61518,1.61518,0,0,1,1.20015.50291" transform="translate(-7.24538 -0.38433)"/></svg>