<svg id="Art" xmlns="http://www.w3.org/2000/svg" viewBox="0 0 150.88753 59.76215"><defs><style>.cls-1{fill:#fff;}</style></defs><title>NGINX-horiz-all-white</title><path class="cls-1" d="M59.76914,16.84481a3.04357,3.04357,0,0,0-1.54187-2.67029L35.02475.779V.77828a3.04031,3.04031,0,0,0-3.08166,0V.779L8.74137,14.17452A3.04247,3.04247,0,0,0,7.1987,16.84481l-.00073.00073V43.63662a3.02509,3.02509,0,0,0,.407,1.5448h.00074A3.01884,3.01884,0,0,0,8.7399,46.30691L31.94168,59.70248l.00074-.00074a3.04462,3.04462,0,0,0,3.0838,0L58.22867,46.30617a3.04238,3.04238,0,0,0,1.5412-2.66955V16.84554ZM46.87937,20.04049l-.00293,20.48157a3.11116,3.11116,0,0,1-3.388,2.8991,5.30269,5.30269,0,0,1-4.06732-1.81854L26.05381,25.60555V40.44021l.00146-.00073a2.98389,2.98389,0,0,1-5.96777,0l.00073.00073.00293-20.483a3.1107,3.1107,0,0,1,3.38794-2.89917,5.30622,5.30622,0,0,1,4.06738,1.8186l.90167,1.0791L40.91379,34.87368V20.04049h-.00146a2.98386,2.98386,0,0,1,5.96771,0Z" transform="translate(-7.19783 -0.35891)"/><polygon class="cls-1" points="144.003 19.788 140.069 19.788 135.736 26.657 131.518 19.788 127.442 19.788 133.513 29.707 127.385 39.968 131.261 39.968 135.565 33.042 139.784 39.968 143.86 39.968 137.731 29.964 144.003 19.788"/><polygon class="cls-1" points="122.36 19.788 122.36 33.527 114.436 19.788 111.158 19.788 111.158 39.968 114.436 39.968 114.436 26.315 122.36 39.968 125.667 39.968 125.667 19.788 122.36 19.788"/><rect class="cls-1" x="104.95586" y="19.78768" width="3.50613" height="20.18067"/><path class="cls-1" d="M109.45724,27.32946V26.1894c0-3.90495-2.87881-6.44192-7.92413-6.44192-5.01668,0-7.8955,2.537-7.8955,6.44192v8.09505c0,3.90524,2.90746,6.44192,7.92414,6.44192s7.89549-2.53668,7.89549-6.44192V29.55294h-8.03807v3.24929h4.53225v1.28266c0,2.10953-1.59616,3.39219-4.41831,3.39219-2.7932,0-4.38937-1.28266-4.38937-3.39219V26.389c0-2.10922,1.59617-3.39187,4.418-3.39187,2.79351,0,4.38967,1.28265,4.38967,3.39187v.94051Z" transform="translate(-7.19783 -0.35891)"/><polygon class="cls-1" points="80.42 19.788 80.42 33.527 72.496 19.788 69.218 19.788 69.218 39.968 72.496 39.968 72.496 26.315 80.42 39.968 83.726 39.968 83.726 19.788 80.42 19.788"/><path class="cls-1" d="M155.31739,39.42287h.38127v-.8492h.3016a.86036.86036,0,0,1,.42362.07074.53054.53054,0,0,1,.20133.494v.17411l.00854.06491a.131.131,0,0,1,.00583.0272c.00195.0105.00272.01361.00855.01827h.35328l-.01282-.0241a.24768.24768,0,0,1-.0171-.11037c-.005-.061-.005-.1131-.005-.16129v-.1609a.61588.61588,0,0,0-.11816-.33657.5489.5489,0,0,0-.37621-.21143.92871.92871,0,0,0,.31365-.10183.47042.47042,0,0,0,.21064-.42751.53128.53128,0,0,0-.33346-.54838,1.65934,1.65934,0,0,0-.59114-.07734h-.75437Zm1.08434-1.16439a.98642.98642,0,0,1-.36262.04819h-.34045v-.78624h.32491a.95907.95907,0,0,1,.45822.08434.32713.32713,0,0,1,.14342.31519.33275.33275,0,0,1-.22348.33852m1.10726-1.29809a1.91563,1.91563,0,0,0-1.4003-.57248,1.96968,1.96968,0,0,0,0,3.93934,1.97318,1.97318,0,0,0,1.4003-3.36686m-.20015.19549a1.61325,1.61325,0,0,1,.49435,1.1982,1.69263,1.69263,0,0,1-2.8931,1.204,1.671,1.671,0,0,1-.492-1.204,1.69846,1.69846,0,0,1,1.69063-1.70111,1.6152,1.6152,0,0,1,1.20015.50291" transform="translate(-7.19783 -0.35891)"/></svg>