<?xml version="1.0" encoding="UTF-8" standalone="no" ?>
<!DOCTYPE svg PUBLIC "-//W3C//DTD SVG 1.1//EN" "http://www.w3.org/Graphics/SVG/1.1/DTD/svg11.dtd">
<svg xmlns="http://www.w3.org/2000/svg" xmlns:xlink="http://www.w3.org/1999/xlink" version="1.1" width="1000" height="250" viewBox="0 0 1000 250" xml:space="preserve">
<desc>Created with Fabric.js 4.2.0</desc>
<defs>
</defs>
<rect x="0" y="0" width="100%" height="100%" fill="transparent"></rect>
<g transform="matrix(1 0 0 1 500 125)" id="75d6a3ad-6eef-4f32-94c4-a52df012c421"  >
<rect style="stroke: none; stroke-width: 1; stroke-dasharray: none; stroke-linecap: butt; stroke-dashoffset: 0; stroke-linejoin: miter; stroke-miterlimit: 4; fill: rgb(255,255,255); fill-rule: nonzero; opacity: 1;" vector-effect="non-scaling-stroke"  x="-500" y="-125" rx="0" ry="0" width="1000" height="250" />
</g>
<g transform="matrix(0 0 0 0 0 0)" id="f31fd8fb-091f-498e-af28-6ebda0b41796"  >
</g>
<g transform="matrix(1.53 0 0 1.53 70.22 124.83)" id="5d5d7ccd-a9cc-4923-80e6-ce99db57673b"  >
<circle style="stroke: rgb(0,0,0); stroke-width: 0; stroke-dasharray: none; stroke-linecap: butt; stroke-dashoffset: 0; stroke-linejoin: miter; stroke-miterlimit: 4; fill: rgb(101,101,101); fill-rule: nonzero; opacity: 1;" vector-effect="non-scaling-stroke"  cx="0" cy="0" r="35" />
</g>
<g transform="matrix(1.96 0 0 1.96 903.77 124.96)" id="094e1e55-1e61-49ba-8765-1ddea7878ec4"  >
<polygon style="stroke: rgb(0,0,0); stroke-width: 0; stroke-dasharray: none; stroke-linecap: butt; stroke-dashoffset: 0; stroke-linejoin: miter; stroke-miterlimit: 4; fill: rgb(101,101,101); fill-rule: nonzero; opacity: 1;" vector-effect="non-scaling-stroke"  points="0,-35.47 11.56,-12.17 37.29,-8.4 18.68,9.8 23.06,35.47 0,23.42 -23.06,35.47 -18.74,9.8 -37.29,-8.4 -11.56,-12.17 " />
</g>
<g transform="matrix(2.82 0 0 0.85 633.75 125)" id="de5360d2-9774-4754-a919-eb63a446f04c"  >
<rect style="stroke: rgb(0,0,0); stroke-width: 0; stroke-dasharray: none; stroke-linecap: butt; stroke-dashoffset: 0; stroke-linejoin: miter; stroke-miterlimit: 4; fill: rgb(101,101,101); fill-rule: nonzero; opacity: 1;" vector-effect="non-scaling-stroke"  x="-33.085" y="-33.085" rx="0" ry="0" width="66.17" height="66.17" />
</g>
<g transform="matrix(2.82 0 0 0.85 831.75 125)" id="de5360d2-9774-4754-a919-eb63a446f04c"  >
<rect style="stroke: rgb(0,0,0); stroke-width: 0; stroke-dasharray: none; stroke-linecap: butt; stroke-dashoffset: 0; stroke-linejoin: miter; stroke-miterlimit: 4; fill: rgb(101,101,101); fill-rule: nonzero; opacity: 1;" vector-effect="non-scaling-stroke"  x="-33.085" y="-33.085" rx="0" ry="0" width="66.17" height="66.17" />
</g>
<g transform="matrix(1 0 0 1 251.22 76.06)"  >
<path style="stroke: rgb(101,101,101); stroke-width: 30; stroke-dasharray: none; stroke-linecap: round; stroke-dashoffset: 0; stroke-linejoin: round; stroke-miterlimit: 10; fill: none; fill-rule: nonzero; opacity: 1;" vector-effect="non-scaling-stroke"  transform=" translate(-251.21, -76.06)" d="M 144.19916666666666 120.7222188313802 Q 144.22916666666666 120.7222188313802 144.5625 120.7222188313802 Q 144.89583333333334 120.7222188313802 145.22916666666669 120.7222188313802 Q 145.5625 120.7222188313802 147.22916666666669 120.7222188313802 Q 148.89583333333334 120.7222188313802 151.5625 120.7222188313802 Q 154.22916666666666 120.7222188313802 157.89583333333331 120.7222188313802 Q 161.5625 120.7222188313802 165.22916666666669 120.7222188313802 Q 168.89583333333334 120.7222188313802 172.22916666666669 120.7222188313802 Q 175.5625 120.7222188313802 178.22916666666669 120.7222188313802 Q 180.89583333333334 120.7222188313802 182.89583333333334 120.7222188313802 Q 184.89583333333334 120.7222188313802 186.22916666666669 120.38888549804688 Q 187.5625 120.05555216471355 189.22916666666669 119.72221883138022 Q 190.89583333333334 119.38888549804688 192.5625 118.72221883138022 Q 194.22916666666666 118.05555216471355 196.22916666666666 117.72221883138022 Q 198.22916666666666 117.38888549804688 199.89583333333331 116.72221883138022 Q 201.5625 116.05555216471355 203.5625 115.38888549804688 Q 205.5625 114.7222188313802 206.89583333333331 114.38888549804688 Q 208.22916666666666 114.05555216471355 209.89583333333331 113.72221883138022 Q 211.5625 113.38888549804688 212.89583333333331 112.72221883138022 Q 214.22916666666666 112.05555216471355 215.89583333333331 111.72221883138022 Q 217.5625 111.38888549804688 219.22916666666669 110.72221883138022 Q 220.89583333333334 110.05555216471355 222.22916666666669 109.38888549804688 Q 223.5625 108.7222188313802 225.22916666666669 108.05555216471353 Q 226.89583333333334 107.38888549804688 229.22916666666669 106.38888549804688 Q 231.5625 105.38888549804688 233.22916666666669 104.38888549804688 Q 234.89583333333334 103.38888549804688 236.89583333333334 102.72221883138022 Q 238.89583333333334 102.05555216471355 239.89583333333334 101.05555216471355 Q 240.89583333333334 100.05555216471355 241.89583333333334 99.05555216471355 Q 242.89583333333334 98.05555216471355 243.89583333333334 97.38888549804688 Q 244.89583333333334 96.7222188313802 245.89583333333334 95.7222188313802 Q 246.89583333333334 94.7222188313802 247.89583333333334 93.7222188313802 Q 248.89583333333334 92.7222188313802 249.5625 92.05555216471353 Q 250.22916666666666 91.38888549804688 251.22916666666666 90.05555216471353 Q 252.22916666666666 88.7222188313802 252.89583333333331 87.7222188313802 Q 253.5625 86.7222188313802 254.5625 85.38888549804688 Q 255.5625 84.05555216471355 255.89583333333334 83.05555216471355 Q 256.2291666666667 82.05555216471355 256.89583333333337 81.05555216471355 Q 257.5625 80.05555216471355 258.22916666666663 79.05555216471355 Q 258.8958333333333 78.05555216471355 259.5625 77.05555216471355 Q 260.2291666666667 76.05555216471355 260.89583333333337 74.72221883138022 Q 261.5625 73.38888549804688 262.5625 72.05555216471353 Q 263.5625 70.7222188313802 263.89583333333337 69.7222188313802 Q 264.2291666666667 68.7222188313802 264.89583333333337 68.05555216471353 Q 265.5625 67.38888549804688 265.89583333333337 66.72221883138022 Q 266.2291666666667 66.05555216471355 267.2291666666667 64.72221883138022 Q 268.2291666666667 63.388885498046875 268.89583333333337 62.388885498046875 Q 269.5625 61.388885498046875 270.22916666666663 60.722218831380204 Q 270.8958333333333 60.05555216471354 271.22916666666663 59.05555216471354 Q 271.5625 58.05555216471354 272.22916666666663 57.388885498046875 Q 272.8958333333333 56.72221883138021 273.5625 55.72221883138021 Q 274.2291666666667 54.72221883138021 274.5625 54.055552164713546 Q 274.8958333333333 53.388885498046875 275.22916666666663 53.055552164713546 Q 275.5625 52.72221883138021 276.22916666666663 51.72221883138021 Q 276.8958333333333 50.72221883138021 277.22916666666663 50.055552164713546 Q 277.5625 49.388885498046875 278.22916666666663 48.722218831380204 Q 278.8958333333333 48.05555216471354 279.5625 47.388885498046875 Q 280.2291666666667 46.72221883138021 281.2291666666667 45.72221883138021 Q 282.2291666666667 44.72221883138021 282.89583333333337 44.055552164713546 Q 283.5625 43.388885498046875 284.5625 42.722218831380204 Q 285.5625 42.05555216471354 286.22916666666663 41.722218831380204 Q 286.8958333333333 41.388885498046875 287.8958333333333 40.722218831380204 Q 288.8958333333333 40.05555216471354 290.22916666666663 39.388885498046875 Q 291.5625 38.72221883138021 292.89583333333337 37.72221883138021 Q 294.2291666666667 36.72221883138021 295.2291666666667 36.055552164713546 Q 296.2291666666667 35.388885498046875 297.2291666666667 34.722218831380204 Q 298.2291666666667 34.05555216471354 298.89583333333337 33.722218831380204 Q 299.5625 33.388885498046875 300.89583333333337 33.055552164713546 Q 302.2291666666667 32.72221883138021 303.2291666666667 32.388885498046875 Q 304.2291666666667 32.05555216471354 305.2291666666667 31.722218831380207 Q 306.2291666666667 31.388885498046875 306.89583333333337 31.388885498046875 Q 307.5625 31.388885498046875 308.22916666666663 31.388885498046875 Q 308.8958333333333 31.388885498046875 309.8958333333333 31.388885498046875 Q 310.8958333333333 31.388885498046875 312.22916666666663 31.388885498046875 Q 313.5625 31.388885498046875 314.5625 31.388885498046875 Q 315.5625 31.388885498046875 316.89583333333337 31.388885498046875 Q 318.2291666666667 31.388885498046875 319.5625 31.388885498046875 Q 320.8958333333333 31.388885498046875 321.8958333333333 32.055552164713546 Q 322.8958333333333 32.72221883138021 323.8958333333333 32.72221883138021 Q 324.8958333333333 32.72221883138021 325.8958333333333 32.72221883138021 Q 326.8958333333333 32.72221883138021 327.8958333333333 33.388885498046875 Q 328.8958333333333 34.05555216471354 329.5625 34.722218831380204 Q 330.2291666666667 35.388885498046875 331.2291666666667 36.055552164713546 Q 332.2291666666667 36.72221883138021 334.2291666666667 37.388885498046875 Q 336.2291666666667 38.05555216471354 337.5625 39.388885498046875 Q 338.8958333333333 40.72221883138021 339.8958333333333 41.388885498046875 Q 340.8958333333333 42.05555216471354 341.8958333333333 42.722218831380204 Q 342.8958333333333 43.388885498046875 343.8958333333333 44.055552164713546 Q 344.8958333333333 44.72221883138021 345.8958333333333 46.055552164713546 Q 346.8958333333333 47.388885498046875 347.8958333333333 48.055552164713546 Q 348.8958333333333 48.72221883138021 349.5625 49.388885498046875 Q 350.2291666666667 50.05555216471354 350.89583333333337 50.722218831380204 Q 351.5625 51.388885498046875 351.89583333333337 52.722218831380204 Q 352.2291666666667 54.05555216471354 352.5625 54.722218831380204 Q 352.8958333333333 55.388885498046875 353.22916666666663 56.055552164713546 Q 353.5625 56.72221883138021 353.89583333333337 57.388885498046875 Q 354.2291666666667 58.05555216471354 354.89583333333337 59.388885498046875 Q 355.5625 60.72221883138021 355.5625 61.388885498046875 Q 355.5625 62.05555216471354 355.89583333333337 63.388885498046875 Q 356.2291666666667 64.7222188313802 356.5625 65.38888549804688 Q 356.8958333333333 66.05555216471355 356.8958333333333 67.38888549804688 Q 356.8958333333333 68.7222188313802 357.22916666666663 70.05555216471353 Q 357.5625 71.38888549804688 357.5625 72.72221883138022 Q 357.5625 74.05555216471355 357.5625 75.38888549804688 Q 357.5625 76.7222188313802 357.5625 77.38888549804688 Q 357.5625 78.05555216471355 357.5625 78.72221883138022 Q 357.5625 79.38888549804688 357.89583333333337 79.38888549804688 Q 358.2291666666667 79.38888549804688 358.2291666666667 80.05555216471353 Q 358.2291666666667 80.7222188313802 358.2291666666667 81.38888549804688 L 358.2291666666667 82.08555216471355" stroke-linecap="round" />
</g>
<g transform="matrix(1 0 0 1 432.56 163.06)"  >
<path style="stroke: rgb(101,101,101); stroke-width: 30; stroke-dasharray: none; stroke-linecap: round; stroke-dashoffset: 0; stroke-linejoin: round; stroke-miterlimit: 10; fill: none; fill-rule: nonzero; opacity: 1;" vector-effect="non-scaling-stroke"  transform=" translate(-432.56, -163.06)" d="M 356.1991666666667 131.35888549804687 Q 356.2291666666667 131.38888549804688 356.2291666666667 132.05555216471356 Q 356.2291666666667 132.72221883138022 356.5625 133.38888549804688 Q 356.8958333333333 134.05555216471353 357.22916666666663 136.05555216471353 Q 357.5625 138.05555216471353 357.5625 139.38888549804688 Q 357.5625 140.72221883138022 357.5625 141.38888549804688 Q 357.5625 142.05555216471353 357.89583333333337 142.7222188313802 Q 358.2291666666667 143.38888549804688 358.5625 144.7222188313802 Q 358.8958333333333 146.05555216471353 358.8958333333333 146.7222188313802 Q 358.8958333333333 147.38888549804688 359.22916666666663 148.7222188313802 Q 359.5625 150.05555216471353 359.89583333333337 150.7222188313802 Q 360.2291666666667 151.38888549804688 360.2291666666667 153.38888549804688 Q 360.2291666666667 155.38888549804688 360.5625 156.05555216471356 Q 360.8958333333333 156.72221883138022 360.8958333333333 158.05555216471356 Q 360.8958333333333 159.38888549804688 361.22916666666663 160.7222188313802 Q 361.5625 162.05555216471353 361.89583333333337 163.38888549804688 Q 362.2291666666667 164.72221883138022 362.5625 166.72221883138022 Q 362.8958333333333 168.72221883138022 363.22916666666663 170.72221883138022 Q 363.5625 172.72221883138022 363.89583333333337 174.05555216471356 Q 364.2291666666667 175.38888549804688 364.5625 176.7222188313802 Q 364.8958333333333 178.05555216471353 365.22916666666663 178.7222188313802 Q 365.5625 179.38888549804688 365.89583333333337 180.05555216471356 Q 366.2291666666667 180.72221883138022 366.89583333333337 182.05555216471356 Q 367.5625 183.38888549804688 368.22916666666663 184.05555216471356 Q 368.8958333333333 184.72221883138022 369.5625 186.05555216471356 Q 370.2291666666667 187.38888549804688 370.89583333333337 188.05555216471356 Q 371.5625 188.72221883138022 372.5625 189.38888549804688 Q 373.5625 190.05555216471353 374.5625 190.7222188313802 Q 375.5625 191.38888549804688 376.5625 192.05555216471356 Q 377.5625 192.72221883138022 378.5625 193.38888549804688 Q 379.5625 194.05555216471353 380.89583333333337 194.7222188313802 Q 382.2291666666667 195.38888549804688 383.89583333333337 196.05555216471356 Q 385.5625 196.72221883138022 387.5625 197.38888549804688 Q 389.5625 198.05555216471353 391.22916666666663 198.05555216471353 Q 392.8958333333333 198.05555216471353 394.5625 198.7222188313802 Q 396.2291666666667 199.38888549804688 397.5625 199.38888549804688 Q 398.8958333333333 199.38888549804688 400.22916666666663 200.05555216471356 Q 401.5625 200.72221883138022 402.22916666666663 200.72221883138022 Q 402.8958333333333 200.72221883138022 403.8958333333333 200.72221883138022 Q 404.8958333333333 200.72221883138022 406.22916666666663 200.72221883138022 Q 407.5625 200.72221883138022 408.5625 200.72221883138022 Q 409.5625 200.72221883138022 410.89583333333337 200.72221883138022 Q 412.2291666666667 200.72221883138022 412.89583333333337 200.72221883138022 Q 413.5625 200.72221883138022 414.22916666666663 200.72221883138022 Q 414.8958333333333 200.72221883138022 416.22916666666663 200.38888549804688 Q 417.5625 200.05555216471353 418.89583333333337 199.38888549804688 Q 420.2291666666667 198.72221883138022 421.89583333333337 197.72221883138022 Q 423.5625 196.72221883138022 424.89583333333337 195.38888549804688 Q 426.2291666666667 194.05555216471353 427.5625 193.38888549804688 Q 428.8958333333333 192.72221883138022 429.8958333333333 191.72221883138022 Q 430.8958333333333 190.72221883138022 431.8958333333333 189.72221883138022 Q 432.8958333333333 188.72221883138022 433.5625 187.72221883138022 Q 434.2291666666667 186.72221883138022 435.2291666666667 185.72221883138022 Q 436.2291666666667 184.72221883138022 437.2291666666667 183.38888549804688 Q 438.2291666666667 182.05555216471353 438.89583333333337 181.05555216471353 Q 439.5625 180.05555216471353 440.22916666666663 179.05555216471353 Q 440.8958333333333 178.05555216471353 441.5625 177.05555216471353 Q 442.2291666666667 176.05555216471353 442.5625 175.05555216471353 Q 442.8958333333333 174.05555216471353 443.22916666666663 173.38888549804688 Q 443.5625 172.72221883138022 444.22916666666663 171.72221883138022 Q 444.8958333333333 170.72221883138022 444.8958333333333 169.72221883138022 Q 444.8958333333333 168.72221883138022 445.22916666666663 167.72221883138022 Q 445.5625 166.72221883138022 445.89583333333337 165.38888549804688 Q 446.2291666666667 164.05555216471353 446.5625 163.05555216471353 Q 446.8958333333333 162.05555216471353 447.22916666666663 161.38888549804688 Q 447.5625 160.72221883138022 447.89583333333337 159.38888549804688 Q 448.2291666666667 158.05555216471353 448.5625 157.05555216471353 Q 448.8958333333333 156.05555216471353 449.22916666666663 155.05555216471353 Q 449.5625 154.05555216471353 449.89583333333337 153.05555216471353 Q 450.2291666666667 152.05555216471353 450.2291666666667 151.38888549804688 Q 450.2291666666667 150.72221883138022 450.5625 149.72221883138022 Q 450.8958333333333 148.72221883138022 450.8958333333333 148.05555216471356 Q 450.8958333333333 147.38888549804688 451.22916666666663 146.7222188313802 Q 451.5625 146.05555216471353 451.89583333333337 145.05555216471353 Q 452.2291666666667 144.05555216471353 452.5625 143.38888549804688 Q 452.8958333333333 142.72221883138022 453.5625 141.72221883138022 Q 454.2291666666667 140.72221883138022 454.89583333333337 139.72221883138022 Q 455.5625 138.72221883138022 456.22916666666663 138.05555216471356 Q 456.8958333333333 137.38888549804688 457.8958333333333 136.38888549804688 Q 458.8958333333333 135.38888549804688 459.5625 134.7222188313802 Q 460.2291666666667 134.05555216471353 460.89583333333337 133.7222188313802 Q 461.5625 133.38888549804688 462.22916666666663 133.05555216471356 Q 462.8958333333333 132.72221883138022 463.5625 132.05555216471356 Q 464.2291666666667 131.38888549804688 464.89583333333337 131.05555216471356 Q 465.5625 130.72221883138022 466.22916666666663 130.38888549804688 Q 466.8958333333333 130.05555216471353 467.8958333333333 129.7222188313802 Q 468.8958333333333 129.38888549804688 469.5625 129.38888549804688 Q 470.2291666666667 129.38888549804688 470.89583333333337 129.05555216471356 Q 471.5625 128.72221883138022 471.89583333333337 128.72221883138022 Q 472.2291666666667 128.72221883138022 472.5625 128.72221883138022 Q 472.8958333333333 128.72221883138022 473.5625 128.38888549804688 Q 474.2291666666667 128.05555216471353 474.89583333333337 127.7222188313802 Q 475.5625 127.38888549804688 475.89583333333337 127.38888549804688 Q 476.2291666666667 127.38888549804688 476.89583333333337 127.38888549804688 Q 477.5625 127.38888549804688 477.89583333333337 127.05555216471353 Q 478.2291666666667 126.7222188313802 478.5625 126.7222188313802 Q 478.8958333333333 126.7222188313802 479.22916666666663 126.7222188313802 Q 479.5625 126.7222188313802 479.89583333333337 126.7222188313802 Q 480.2291666666667 126.7222188313802 481.2291666666667 126.7222188313802 Q 482.2291666666667 126.7222188313802 483.2291666666667 126.7222188313802 Q 484.2291666666667 126.7222188313802 484.89583333333337 126.38888549804688 Q 485.5625 126.05555216471355 486.5625 126.05555216471355 Q 487.5625 126.05555216471355 488.22916666666663 126.05555216471355 Q 488.8958333333333 126.05555216471355 489.5625 126.05555216471355 Q 490.2291666666667 126.05555216471355 490.89583333333337 126.05555216471355 Q 491.5625 126.05555216471355 491.89583333333337 126.05555216471355 Q 492.2291666666667 126.05555216471355 492.5625 126.05555216471355 Q 492.8958333333333 126.05555216471355 493.22916666666663 126.05555216471355 Q 493.5625 126.05555216471355 493.89583333333337 126.05555216471355 Q 494.2291666666667 126.05555216471355 494.5625 126.05555216471355 Q 494.8958333333333 126.05555216471355 495.22916666666663 126.05555216471355 Q 495.5625 126.05555216471355 495.89583333333337 126.05555216471355 Q 496.2291666666667 126.05555216471355 496.5625 126.05555216471355 Q 496.8958333333333 126.05555216471355 497.22916666666663 126.05555216471355 Q 497.5625 126.05555216471355 497.89583333333337 126.05555216471355 Q 498.2291666666667 126.05555216471355 498.89583333333337 126.05555216471355 Q 499.5625 126.05555216471355 499.89583333333337 126.05555216471355 Q 500.2291666666667 126.05555216471355 500.5625 126.05555216471355 Q 500.8958333333333 126.05555216471355 501.22916666666663 126.05555216471355 Q 501.5625 126.05555216471355 501.89583333333337 126.05555216471355 Q 502.2291666666667 126.05555216471355 502.5625 126.05555216471355 Q 502.8958333333333 126.05555216471355 503.22916666666663 126.05555216471355 Q 503.5625 126.05555216471355 503.89583333333337 126.05555216471355 Q 504.2291666666667 126.05555216471355 504.5625 126.05555216471355 Q 504.8958333333333 126.05555216471355 505.22916666666663 126.05555216471355 Q 505.5625 126.05555216471355 505.5625 125.72221883138022 Q 505.5625 125.38888549804688 505.89583333333337 125.38888549804688 Q 506.2291666666667 125.38888549804688 506.5625 125.38888549804688 Q 506.8958333333333 125.38888549804688 507.22916666666663 125.38888549804688 Q 507.5625 125.38888549804688 507.89583333333337 125.38888549804688 Q 508.2291666666667 125.38888549804688 508.5625 125.38888549804688 L 508.9258333333333 125.38888549804688" stroke-linecap="round" />
</g>
<g transform="matrix(2.06 0 0 2.06 904.53 125)"  >
<path style="stroke: rgb(255,255,255); stroke-width: 0; stroke-dasharray: none; stroke-linecap: butt; stroke-dashoffset: 0; stroke-linejoin: miter; stroke-miterlimit: 4; fill: rgb(255,255,255); fill-rule: nonzero; opacity: 1;" vector-effect="non-scaling-stroke"  transform=" translate(-50, -50)" d="M 87.294 41.605 L 61.56099999999999 37.833 L 50.00099999999999 14.532999999999998 L 38.43999999999999 37.833 L 12.70699999999999 41.605 L 31.32299999999999 59.797 L 26.94299999999999 85.467 L 50.001999999999995 73.362 L 73.06 85.467 L 68.739 59.797 L 87.294 41.605 z M 50.001 65.087 L 35.095 72.875 L 37.893 56.325 L 25.909 44.585 L 42.516 42.152 L 50.001 27.064 L 57.482 42.152 L 74.089 44.585 L 62.105 56.325 L 64.905 72.875 L 50.001 65.087 z" stroke-linecap="round" />
</g>
</svg>