<?xml version="1.0" encoding="UTF-8" standalone="no"?>
<svg width="1681.99mm" height="1188.97mm"
 viewBox="0 0 19866 14043"
 xmlns="http://www.w3.org/2000/svg" xmlns:xlink="http://www.w3.org/1999/xlink"  version="1.2" baseProfile="tiny">
<title>Qt SVG Document</title>
<desc>Generated with Qt</desc>
<defs>
</defs>
<g fill="none" stroke="black" stroke-width="1" fill-rule="evenodd" stroke-linecap="square" stroke-linejoin="bevel" >

<g fill="#000000" fill-opacity="1" stroke="none" transform="matrix(1,0,0,1,0,0)"
font-family="MS Shell Dlg 2" font-size="33.3333" font-weight="400" font-style="normal" 
>
<rect x="0" y="0" width="19866.1" height="14043.3"/>
</g>

<g fill="none" stroke="#000000" stroke-opacity="1" stroke-width="1" stroke-linecap="square" stroke-linejoin="bevel" transform="matrix(1,0,0,1,0,0)"
font-family="MS Shell Dlg 2" font-size="33.3333" font-weight="400" font-style="normal" 
>
</g>

<g fill="#000000" fill-opacity="1" stroke="#000000" stroke-opacity="1" stroke-width="1" stroke-linecap="butt" stroke-linejoin="miter" stroke-miterlimit="2" transform="matrix(1,0,0,1,0,0)"
font-family="MS Shell Dlg 2" font-size="33.3333" font-weight="400" font-style="normal" 
>
</g>

<g fill="#000000" fill-opacity="1" stroke="#000000" stroke-opacity="1" stroke-width="1" stroke-linecap="butt" stroke-linejoin="miter" stroke-miterlimit="2" transform="matrix(1,0,0,1,0,0)"
font-family="MS Shell Dlg 2" font-size="33.3333" font-weight="400" font-style="normal" 
>
</g>

<g fill="#000000" fill-opacity="1" stroke="#000000" stroke-opacity="1" stroke-width="3" stroke-linecap="square" stroke-linejoin="bevel" transform="matrix(1,0,0,1,0,0)"
font-family="MS Shell Dlg 2" font-size="33.3333" font-weight="400" font-style="normal" 
>
</g>

<g fill="none" stroke="#000000" stroke-opacity="1" stroke-width="3" stroke-linecap="square" stroke-linejoin="bevel" transform="matrix(1,0,0,1,1350.36,7888.6)"
font-family="MS Shell Dlg 2" font-size="33.3333" font-weight="400" font-style="normal" 
>
<path vector-effect="none" fill-rule="evenodd" d="M972.162,0 C972.162,-536.91 536.91,-972.162 0,-972.162 C-536.91,-972.162 -972.162,-536.91 -972.162,0 C-972.162,536.91 -536.91,972.162 0,972.162 C536.91,972.162 972.162,536.91 972.162,0 "/>
</g>

<g fill="#000000" fill-opacity="1" stroke="#000000" stroke-opacity="1" stroke-width="3" stroke-linecap="square" stroke-linejoin="bevel" transform="matrix(1,0,0,1,0,0)"
font-family="MS Shell Dlg 2" font-size="33.3333" font-weight="400" font-style="normal" 
>
<polyline fill="none" vector-effect="none" points="8758.91,7352.24 8758.91,8424.97 12044.1,8424.97 12044.1,7352.24 8758.91,7352.24 " />
<polyline fill="none" vector-effect="none" points="9.44882,5206.78 9.44882,10570.4 16770.9,10570.4 16770.9,5206.78 9.44882,5206.78 " />
<polyline fill="none" vector-effect="none" points="12864.1,7352.24 12111.2,7352.24 12111.2,8424.97 12864.1,8424.97 13146.1,7888.6 12864.1,7352.24 " />
<polyline fill="none" vector-effect="none" points="5039.56,8357.81 5036.67,8362.43 " />
<polyline fill="none" vector-effect="none" points="6210.66,8090.5 5884.88,7568.94 5047.33,6228.02 4535.55,5408.67 4023.77,6228.02 3363.44,7285.19 2196.44,7285.19 " />
<polyline fill="none" vector-effect="none" points="2196.44,7285.19 2192.69,7279.96 2188.9,7274.75 2185.08,7269.57 2181.23,7264.41 2177.34,7259.27 2173.43,7254.16 2169.48,7249.07 2165.5,7244.01 2161.49,7238.97 2157.45,7233.95 2153.38,7228.97 2149.27,7224 2145.14,7219.06 2140.98,7214.15 2136.78,7209.27 2132.56,7204.41 2128.3,7199.57 2124.02,7194.76 2119.7,7189.98 2115.36,7185.23 2110.99,7180.5 2106.58,7175.8 2102.15,7171.13 2097.69,7166.49 2093.2,7161.87 2088.68,7157.28 2084.14,7152.72 2079.56,7148.19 2074.96,7143.68 2070.33,7139.2 2065.67,7134.76 2060.99,7130.34 2056.28,7125.95 2051.54,7121.59 2046.77,7117.26 2041.98,7112.96 2037.16,7108.69 2032.31,7104.45 2027.44,7100.24 2022.54,7096.06 2017.62,7091.91 2012.67,7087.79 2007.69,7083.7 2002.69,7079.64 1997.67,7075.61 1992.62,7071.62 1987.54,7067.65 1982.44,7063.72 1977.32,7059.82 1972.17,7055.95 1967,7052.11 1961.8,7048.31 1956.59,7044.54 1951.34,7040.8 1946.08,7037.09 1940.79,7033.41 1935.48,7029.77 1930.15,7026.16 1924.79,7022.59 1919.41,7019.04 1914.01,7015.53 1908.59,7012.06 1903.15,7008.61 1897.69,7005.21 1892.2,7001.83 1886.7,6998.49 1881.17,6995.18 1875.62,6991.91 1870.06,6988.67 1864.47,6985.47 1858.87,6982.3 1853.24,6979.17 1847.59,6976.07 1841.93,6973.01 1836.25,6969.98 1830.55,6966.99 1824.82,6964.03 1819.09,6961.11 1813.33,6958.22 1807.56,6955.37 1801.76,6952.55 1795.95,6949.77 1790.13,6947.03 1784.29,6944.32 1778.43,6941.65 1772.55,6939.02 1766.66,6936.42 1760.75,6933.86 1754.82,6931.33 1748.89,6928.85 1742.93,6926.39 1736.96,6923.98 1730.98,6921.6 1724.98,6919.26 1718.96,6916.96 1712.93,6914.7 1706.89,6912.47 1700.84,6910.28 1694.77,6908.12 1688.68,6906.01 1682.59,6903.93 1676.48,6901.89 1670.36,6899.89 1664.23,6897.93 1658.08,6896 1651.93,6894.11 1645.76,6892.26 1639.58,6890.45 1633.39,6888.68 1627.19,6886.94 1620.97,6885.25 1614.75,6883.59 1608.52,6881.97 1602.27,6880.39 1596.02,6878.85 1589.76,6877.34 1583.49,6875.88 1577.21,6874.46 1570.92,6873.07 1564.62,6871.72 1558.32,6870.41 1552,6869.14 1545.68,6867.92 1539.36,6866.72 1533.02,6865.57 1526.68,6864.46 1520.33,6863.39 1513.97,6862.35 1507.61,6861.36 1501.24,6860.41 1494.87,6859.49 1488.49,6858.61 1482.1,6857.78 1475.71,6856.98 1469.31,6856.22 1462.92,6855.51 1456.51,6854.83 1450.1,6854.19 1443.69,6853.59 1437.28,6853.04 1430.86,6852.52 1424.44,6852.04 1418.01,6851.6 1411.58,6851.2 1405.15,6850.84 1398.72,6850.52 1392.29,6850.24 1385.85,6850 1379.42,6849.8 1372.98,6849.64 1366.54,6849.52 1360.1,6849.44 1353.66,6849.4 1347.22,6849.4 1340.78,6849.44 1334.34,6849.52 1327.9,6849.64 1321.47,6849.8 1315.03,6850 1308.59,6850.23 1302.16,6850.51 1295.73,6850.83 1289.3,6851.19 1282.87,6851.59 1276.45,6852.03 1270.03,6852.5 1263.61,6853.02 1257.19,6853.58 1250.78,6854.18 1244.37,6854.81 1237.97,6855.49 1231.57,6856.21 1225.17,6856.96 1218.78,6857.76 1212.4,6858.59 1206.02,6859.47 1199.64,6860.38 1193.27,6861.34 1186.91,6862.33 1180.55,6863.36 1174.2,6864.43 1167.86,6865.54 1161.53,6866.7 1155.2,6867.89 1148.88,6869.11 1142.56,6870.38 1136.26,6871.69 1129.96,6873.04 1123.67,6874.42 1117.39,6875.85 1111.12,6877.31 1104.86,6878.81 1098.6,6880.35 1092.36,6881.93 1086.13,6883.55 1079.9,6885.21 1073.69,6886.9 1067.49,6888.63 1061.3,6890.41 1055.12,6892.22 1048.95,6894.07 1042.79,6895.95 1036.65,6897.88 1030.51,6899.84 1024.39,6901.84 1018.29,6903.88 1012.19,6905.96 1006.11,6908.07 1000.04,6910.22 993.982,6912.41 987.94,6914.64 981.911,6916.9 975.897,6919.21 969.897,6921.55 963.912,6923.92 957.941,6926.33 951.986,6928.78 946.046,6931.27 940.121,6933.8 934.213,6936.36 928.32,6938.95 922.443,6941.59 916.583,6944.26 910.74,6946.96 904.913,6949.71 899.104,6952.48 893.311,6955.3 887.537,6958.15 881.78,6961.03 876.041,6963.96 870.32,6966.91 864.618,6969.9 858.935,6972.93 853.27,6975.99 847.624,6979.09 841.998,6982.23 836.391,6985.39 830.804,6988.6 825.237,6991.83 819.69,6995.1 814.164,6998.41 808.658,7001.75 803.172,7005.12 797.708,7008.53 792.265,7011.97 786.844,7015.45 781.444,7018.96 776.066,7022.5 770.71,7026.07 765.376,7029.68 760.065,7033.32 754.777,7037 749.511,7040.7 744.268,7044.44 739.049,7048.22 733.853,7052.02 728.681,7055.86 723.532,7059.73 718.408,7063.63 713.308,7067.56 708.233,7071.52 703.182,7075.52 698.156,7079.54 693.155,7083.6 688.179,7087.69 683.229,7091.81 678.304,7095.95 673.405,7100.13 668.532,7104.34 663.685,7108.58 658.865,7112.85 654.071,7117.15 649.304,7121.48 644.564,7125.84 639.851,7130.23 635.165,7134.65 630.507,7139.09 625.876,7143.57 621.274,7148.07 616.699,7152.61 612.152,7157.17 607.634,7161.75 603.144,7166.37 598.683,7171.02 594.251,7175.69 589.847,7180.39 585.473,7185.11 581.129,7189.87 576.814,7194.65 572.528,7199.45 568.273,7204.29 564.047,7209.15 559.852,7214.03 555.687,7218.94 551.553,7223.88 547.449,7228.84 543.376,7233.83 539.334,7238.84 535.323,7243.88 531.344,7248.94 527.396,7254.03 523.479,7259.14 519.595,7264.28 515.742,7269.44 511.921,7274.62 508.133,7279.83 504.376,7285.06 500.653,7290.32 496.962,7295.59 493.303,7300.89 489.678,7306.21 486.085,7311.56 482.526,7316.93 479,7322.31 475.508,7327.73 472.049,7333.16 468.624,7338.61 465.233,7344.08 461.876,7349.58 458.553,7355.1 455.264,7360.63 452.009,7366.19 448.789,7371.77 445.604,7377.36 442.453,7382.98 439.338,7388.62 436.257,7394.27 433.211,7399.94 430.201,7405.64 427.226,7411.35 424.286,7417.08 421.382,7422.83 418.513,7428.59 415.681,7434.37 412.884,7440.17 410.123,7445.99 407.398,7451.83 404.71,7457.68 402.058,7463.55 399.442,7469.43 396.863,7475.33 394.32,7481.25 391.814,7487.18 389.345,7493.13 386.913,7499.09 384.518,7505.07 382.16,7511.06 379.839,7517.07 377.555,7523.09 375.309,7529.12 373.1,7535.17 370.929,7541.24 368.795,7547.31 366.699,7553.4 364.641,7559.5 362.62,7565.62 360.638,7571.74 358.693,7577.88 356.787,7584.03 354.919,7590.2 353.089,7596.37 351.297,7602.56 349.544,7608.75 347.829,7614.96 346.152,7621.18 344.515,7627.41 342.915,7633.64 341.355,7639.89 339.833,7646.15 338.35,7652.42 336.906,7658.69 335.501,7664.98 334.134,7671.27 332.807,7677.57 331.519,7683.88 330.27,7690.2 329.06,7696.52 327.889,7702.85 326.758,7709.19 325.666,7715.54 324.613,7721.89 323.6,7728.25 322.626,7734.62 321.691,7740.99 320.796,7747.37 319.941,7753.75 319.125,7760.14 318.349,7766.53 317.612,7772.93 316.915,7779.33 316.258,7785.74 315.64,7792.15 315.063,7798.56 314.525,7804.98 314.026,7811.4 313.568,7817.82 313.149,7824.25 312.77,7830.68 312.431,7837.11 312.132,7843.54 311.873,7849.97 311.653,7856.41 311.474,7862.85 311.334,7869.28 311.234,7875.72 311.174,7882.16 311.154,7888.6 311.174,7895.04 311.234,7901.48 311.334,7907.92 311.474,7914.36 311.653,7920.8 311.873,7927.23 312.132,7933.67 312.431,7940.1 312.77,7946.53 313.149,7952.96 313.568,7959.38 314.026,7965.81 314.525,7972.23 315.063,7978.65 315.64,7985.06 316.258,7991.47 316.915,7997.87 317.612,8004.28 318.349,8010.67 319.125,8017.07 319.941,8023.45 320.796,8029.84 321.691,8036.21 322.626,8042.59 323.6,8048.95 324.613,8055.31 325.666,8061.66 326.758,8068.01 327.889,8074.35 329.06,8080.68 330.27,8087.01 331.519,8093.32 332.807,8099.63 334.134,8105.94 335.501,8112.23 336.906,8118.51 338.35,8124.79 339.833,8131.06 341.355,8137.31 342.915,8143.56 344.515,8149.8 346.152,8156.03 347.829,8162.24 349.544,8168.45 351.297,8174.65 353.089,8180.83 354.919,8187.01 356.787,8193.17 358.693,8199.32 360.638,8205.46 362.62,8211.59 364.641,8217.7 366.699,8223.8 368.795,8229.89 370.929,8235.97 373.1,8242.03 375.309,8248.08 377.555,8254.12 379.839,8260.14 382.16,8266.14 384.518,8272.14 386.913,8278.11 389.345,8284.08 391.814,8290.02 394.32,8295.96 396.863,8301.87 399.442,8307.77 402.058,8313.66 404.71,8319.53 407.398,8325.38 410.123,8331.21 412.884,8337.03 415.681,8342.83 418.513,8348.61 421.382,8354.38 424.286,8360.13 427.226,8365.86 430.201,8371.57 433.211,8377.26 436.257,8382.93 439.338,8388.59 442.453,8394.23 445.604,8399.84 448.789,8405.44 452.009,8411.02 455.264,8416.57 458.553,8422.11 461.876,8427.62 465.233,8433.12 468.624,8438.59 472.049,8444.05 475.508,8449.48 479,8454.89 482.526,8460.28 486.085,8465.65 489.678,8470.99 493.303,8476.31 496.962,8481.61 500.653,8486.89 504.376,8492.14 508.133,8497.37 511.921,8502.58 515.742,8507.76 519.595,8512.92 523.479,8518.06 527.396,8523.17 531.344,8528.26 535.323,8533.32 539.334,8538.36 543.376,8543.37 547.449,8548.36 551.553,8553.33 555.687,8558.26 559.852,8563.17 564.047,8568.06 568.273,8572.92 572.528,8577.75 576.814,8582.56 581.129,8587.34 585.473,8592.09 589.847,8596.82 594.251,8601.52 598.683,8606.19 603.144,8610.83 607.634,8615.45 612.152,8620.04 616.699,8624.6 621.274,8629.13 625.876,8633.63 630.507,8638.11 635.165,8642.56 639.851,8646.97 644.564,8651.36 649.304,8655.72 654.071,8660.05 658.865,8664.35 663.685,8668.62 668.532,8672.86 673.405,8677.07 678.304,8681.25 683.229,8685.4 688.179,8689.52 693.155,8693.61 698.156,8697.66 703.182,8701.69 708.233,8705.68 713.308,8709.65 718.408,8713.58 723.532,8717.48 728.681,8721.35 733.853,8725.18 739.049,8728.99 744.268,8732.76 749.511,8736.5 754.777,8740.21 760.065,8743.88 765.376,8747.52 770.71,8751.13 776.066,8754.71 781.444,8758.25 786.844,8761.76 792.265,8765.23 797.708,8768.67 803.172,8772.08 808.658,8775.46 814.164,8778.8 819.69,8782.1 825.237,8785.37 830.804,8788.61 836.391,8791.81 841.998,8794.98 847.624,8798.11 853.27,8801.21 858.935,8804.27 864.618,8807.3 870.32,8810.29 876.041,8813.25 881.78,8816.17 887.537,8819.06 893.311,8821.91 899.104,8824.72 904.913,8827.5 910.74,8830.24 916.583,8832.95 922.443,8835.62 928.32,8838.25 934.213,8840.85 940.121,8843.41 946.046,8845.93 951.986,8848.42 957.941,8850.87 963.912,8853.28 969.897,8855.66 975.897,8858 981.911,8860.3 987.94,8862.56 993.982,8864.79 1000.04,8866.98 1006.11,8869.13 1012.19,8871.25 1018.29,8873.32 1024.39,8875.36 1030.51,8877.36 1036.65,8879.33 1042.79,8881.25 1048.95,8883.14 1055.12,8884.99 1061.3,8886.8 1067.49,8888.57 1073.69,8890.3 1079.9,8892 1086.13,8893.66 1092.36,8895.27 1098.6,8896.85 1104.86,8898.39 1111.12,8899.9 1117.39,8901.36 1123.67,8902.78 1129.96,8904.17 1136.26,8905.52 1142.56,8906.82 1148.88,8908.09 1155.2,8909.32 1161.53,8910.51 1167.86,8911.66 1174.2,8912.77 1180.55,8913.84 1186.91,8914.88 1193.27,8915.87 1199.64,8916.82 1206.02,8917.74 1212.4,8918.61 1218.78,8919.45 1225.17,8920.24 1231.57,8921 1237.97,8921.71 1244.37,8922.39 1250.78,8923.03 1257.19,8923.63 1263.61,8924.18 1270.03,8924.7 1276.45,8925.18 1282.87,8925.62 1289.3,8926.01 1295.73,8926.37 1302.16,8926.69 1308.59,8926.97 1315.03,8927.21 1321.47,8927.41 1327.9,8927.57 1334.34,8927.69 1340.78,8927.77 1347.22,8927.81 1353.66,8927.81 1360.1,8927.76 1366.54,8927.68 1372.98,8927.56 1379.42,8927.4 1385.85,8927.2 1392.29,8926.96 1398.72,8926.68 1405.15,8926.36 1411.58,8926.01 1418.01,8925.61 1424.44,8925.17 1430.86,8924.69 1437.28,8924.17 1443.69,8923.61 1450.1,8923.01 1456.51,8922.37 1462.92,8921.7 1469.31,8920.98 1475.71,8920.22 1482.1,8919.43 1488.49,8918.59 1494.87,8917.71 1501.24,8916.8 1507.61,8915.84 1513.97,8914.85 1520.33,8913.82 1526.68,8912.74 1533.02,8911.63 1539.36,8910.48 1545.68,8909.29 1552,8908.06 1558.32,8906.79 1564.62,8905.48 1570.92,8904.14 1577.21,8902.75 1583.49,8901.32 1589.76,8899.86 1596.02,8898.36 1602.27,8896.82 1608.52,8895.23 1614.75,8893.62 1620.97,8891.96 1627.19,8890.26 1633.39,8888.53 1639.58,8886.75 1645.76,8884.94 1651.93,8883.09 1658.08,8881.21 1664.23,8879.28 1670.36,8877.32 1676.48,8875.31 1682.59,8873.27 1688.68,8871.2 1694.77,8869.08 1700.84,8866.93 1706.89,8864.74 1712.93,8862.51 1718.96,8860.24 1724.98,8857.94 1730.98,8855.6 1736.96,8853.22 1742.93,8850.81 1748.89,8848.36 1754.82,8845.87 1760.75,8843.35 1766.66,8840.78 1772.55,8838.19 1778.43,8835.55 1784.29,8832.88 1790.13,8830.17 1795.95,8827.43 1801.76,8824.65 1807.56,8821.84 1813.33,8818.99 1819.09,8816.1 1824.82,8813.18 1830.55,8810.22 1836.25,8807.23 1841.93,8804.2 1847.59,8801.13 1853.24,8798.04 1858.87,8794.9 1864.47,8791.73 1870.06,8788.53 1875.62,8785.29 1881.17,8782.02 1886.7,8778.71 1892.2,8775.37 1897.69,8772 1903.15,8768.59 1908.59,8765.15 1914.01,8761.67 1919.41,8758.16 1924.79,8754.62 1930.15,8751.04 1935.48,8747.43 1940.79,8743.79 1946.08,8740.12 1951.34,8736.41 1956.59,8732.67 1961.8,8728.9 1967,8725.09 1972.17,8721.25 1977.32,8717.38 1982.44,8713.48 1987.54,8709.55 1992.62,8705.59 1997.67,8701.59 2002.69,8697.56 2007.69,8693.51 2012.67,8689.42 2017.62,8685.3 2022.54,8681.15 2027.44,8676.97 2032.31,8672.76 2037.16,8668.52 2041.98,8664.24 2046.77,8659.94 2051.54,8655.61 2056.28,8651.25 2060.99,8646.87 2065.67,8642.45 2070.33,8638 2074.96,8633.52 2079.56,8629.02 2084.14,8624.49 2088.68,8619.93 2093.2,8615.34 2097.69,8610.72 2102.15,8606.07 2106.58,8601.4 2110.99,8596.7 2115.36,8591.98 2119.7,8587.22 2124.02,8582.44 2128.3,8577.63 2132.56,8572.8 2136.78,8567.94 2140.98,8563.05 2145.14,8558.14 2149.27,8553.2 2153.38,8548.24 2157.45,8543.25 2161.49,8538.24 2165.5,8533.2 2169.48,8528.13 2173.43,8523.05 2177.34,8517.93 2181.23,8512.8 2185.08,8507.64 2188.9,8502.45 2192.69,8497.24 2196.44,8492.01 " />
<polyline fill="none" vector-effect="none" points="2196.44,8492.01 4032.54,8492.01 4209.77,8208.27 4535.55,7686.7 4861.32,8208.27 5698.88,9549.18 6210.02,10367.5 6722.08,9549.76 7384.42,8492.01 12828.8,8492.01 12802,8542.95 12770.4,8603.07 12837.4,8591.59 13566,8466.62 14082,8995.99 14129.4,9044.63 14139.2,8977.41 14245.5,8245.84 14908.4,7918.66 14969.3,7888.6 14908.4,7858.54 14245.5,7531.37 14139.2,6799.79 14129.4,6732.57 14082,6781.21 13566,7310.59 12837.4,7185.62 12770.4,7174.14 12802,7234.26 12828.8,7285.19 6713.67,7285.19 6536.44,7568.94 6210.66,8090.5 " />
<polyline fill="none" vector-effect="none" points="5036.67,8362.43 4918.19,8172.75 4535.55,7560.15 4152.9,8172.75 3995.36,8424.97 2240.46,8424.97 " />
<polyline fill="none" vector-effect="none" points="2240.46,8424.97 2243.76,8419.44 2247.04,8413.89 2250.27,8408.33 2253.48,8402.74 2256.65,8397.13 2259.78,8391.5 2262.88,8385.86 2265.95,8380.19 2268.97,8374.51 2271.97,8368.81 2274.93,8363.08 2277.85,8357.34 2280.74,8351.59 2283.59,8345.81 2286.41,8340.02 2289.19,8334.21 2291.93,8328.38 2294.64,8322.54 2297.31,8316.68 2299.94,8310.8 2302.54,8304.9 2305.1,8299 2307.63,8293.07 2310.12,8287.13 2312.57,8281.17 2314.98,8275.2 2317.36,8269.22 2319.7,8263.21 2322,8257.2 2324.27,8251.17 2326.5,8245.13 2328.69,8239.07 2330.84,8233 2332.96,8226.92 2335.04,8220.82 2337.08,8214.71 2339.08,8208.59 2341.04,8202.45 2342.97,8196.31 2344.86,8190.15 2346.71,8183.98 2348.52,8177.8 2350.29,8171.61 2352.03,8165.4 2353.72,8159.19 2355.38,8152.97 2357,8146.73 2358.58,8140.49 2360.12,8134.23 2361.63,8127.97 2363.09,8121.7 2364.52,8115.42 2365.9,8109.13 2367.25,8102.83 2368.56,8096.52 2369.83,8090.21 2371.06,8083.89 2372.25,8077.56 2373.4,8071.22 2374.51,8064.87 2375.58,8058.52 2376.62,8052.17 2377.61,8045.8 2378.57,8039.43 2379.48,8033.06 2380.36,8026.67 2381.19,8020.29 2381.99,8013.9 2382.75,8007.5 2383.46,8001.1 2384.14,7994.69 2384.78,7988.28 2385.38,7981.87 2385.93,7975.45 2386.45,7969.03 2386.93,7962.61 2387.37,7956.19 2387.77,7949.76 2388.13,7943.33 2388.45,7936.89 2388.73,7930.46 2388.97,7924.02 2389.17,7917.58 2389.33,7911.14 2389.45,7904.7 2389.53,7898.26 2389.57,7891.82 2389.57,7885.38 2389.53,7878.94 2389.45,7872.5 2389.33,7866.06 2389.17,7859.62 2388.97,7853.18 2388.73,7846.75 2388.45,7840.31 2388.13,7833.88 2387.77,7827.45 2387.37,7821.02 2386.93,7814.59 2386.45,7808.17 2385.93,7801.75 2385.38,7795.33 2384.78,7788.92 2384.14,7782.51 2383.46,7776.11 2382.75,7769.7 2381.99,7763.31 2381.19,7756.92 2380.36,7750.53 2379.48,7744.15 2378.57,7737.77 2377.61,7731.4 2376.62,7725.04 2375.58,7718.68 2374.51,7712.33 2373.4,7705.99 2372.25,7699.65 2371.06,7693.32 2369.83,7687 2368.56,7680.68 2367.25,7674.38 2365.9,7668.08 2364.52,7661.79 2363.09,7655.51 2361.63,7649.23 2360.12,7642.97 2358.58,7636.72 2357,7630.47 2355.38,7624.24 2353.72,7618.01 2352.03,7611.8 2350.29,7605.6 2348.52,7599.41 2346.71,7593.22 2344.86,7587.05 2342.97,7580.9 2341.04,7574.75 2339.08,7568.62 2337.08,7562.49 2335.04,7556.39 2332.96,7550.29 2330.84,7544.2 2328.69,7538.13 2326.5,7532.08 2324.27,7526.03 2322,7520.01 2319.7,7513.99 2317.36,7507.99 2314.98,7502 2312.57,7496.03 2310.12,7490.08 2307.63,7484.13 2305.1,7478.21 2302.54,7472.3 2299.94,7466.41 2297.31,7460.53 2294.64,7454.67 2291.93,7448.82 2289.19,7443 2286.41,7437.19 2283.59,7431.39 2280.74,7425.62 2277.85,7419.86 2274.93,7414.12 2271.97,7408.4 2268.97,7402.7 2265.95,7397.01 2262.88,7391.35 2259.78,7385.7 2256.65,7380.07 2253.48,7374.47 2250.27,7368.88 2247.04,7363.31 2243.76,7357.76 2240.46,7352.24 " />
<polyline fill="none" vector-effect="none" points="2240.46,7352.24 3400.61,7352.24 4080.63,6263.54 4535.55,5535.23 4990.46,6263.54 5669.86,7351.24 5494.73,7630.92 5039.56,8357.81 " />
<polyline fill="none" vector-effect="none" points="5755.74,9513.66 6210.09,10241.1 6665.25,9514.18 7347.3,8424.97 8691.86,8424.97 8691.86,7352.24 6750.84,7352.24 6593.3,7604.45 6210.66,8217.06 5828.02,7604.45 5709.36,7414.49 5551.55,7666.51 5076.17,8425.68 5755.74,9513.66 " />
<polyline fill="none" vector-effect="none" points="13213.6,7873 13221.8,7888.6 13213.6,7904.2 12893,8514.02 13572,8397.56 13589.4,8394.58 13601.7,8407.2 14082.6,8900.55 14181.7,8218.75 14184.2,8201.31 14200,8193.51 14817.8,7888.6 14200,7583.69 14184.2,7575.89 14181.7,7558.45 14082.6,6876.65 13601.7,7370.01 13589.4,7382.63 13572,7379.65 12893,7263.18 13213.6,7873 " />
</g>

<g fill="none" stroke="#000000" stroke-opacity="1" stroke-width="1" stroke-linecap="square" stroke-linejoin="bevel" transform="matrix(1,0,0,1,0,0)"
font-family="MS Shell Dlg 2" font-size="33.3333" font-weight="400" font-style="normal" 
>
</g>
</g>
</svg>
